<?xml version="1.0" encoding="UTF-8"?>
<svg version="1.1" xmlns="http://www.w3.org/2000/svg" width="200" height="200">
<path d="M0 0 C12.38297105 -0.11739981 24.6508245 0.02184749 37 1 C34.26599821 6.43922461 31.0667904 11.44852133 27.5 16.375 C27.08540527 16.9512915 26.67081055 17.52758301 26.24365234 18.12133789 C24.25053103 20.88939832 22.25297853 23.65387426 20.24023438 26.40771484 C18.39227647 28.9469495 16.56983085 31.50305613 14.75 34.0625 C13.8537793 35.27655518 13.8537793 35.27655518 12.93945312 36.51513672 C12.39740234 37.28486816 11.85535156 38.05459961 11.296875 38.84765625 C10.80541992 39.52836182 10.31396484 40.20906738 9.80761719 40.91040039 C8.74708872 43.0382234 8.74708872 43.0382234 9.67919922 45.4699707 C10.96951157 47.94159859 12.32452392 50.28990213 13.8359375 52.6328125 C14.39933838 53.51146973 14.96273926 54.39012695 15.54321289 55.29541016 C16.14770264 56.2291748 16.75219238 57.16293945 17.375 58.125 C18.65269872 60.11435539 19.93003648 62.10394266 21.20703125 64.09375 C21.84721191 65.08890625 22.48739258 66.0840625 23.14697266 67.109375 C25.81107193 71.26522946 28.43686037 75.44478688 31.0625 79.625 C34.20958946 84.63270339 37.39127558 89.61392988 40.63671875 94.55859375 C41.2392749 95.47753418 41.84183105 96.39647461 42.46264648 97.34326172 C43.63376941 99.12498104 44.80892101 100.90406032 45.98852539 102.68017578 C46.51309326 103.47794434 47.03766113 104.27571289 47.578125 105.09765625 C48.04637695 105.80414307 48.51462891 106.51062988 48.99707031 107.23852539 C50 109 50 109 50 111 C49.34 111 48.68 111 48 111 C46.26613926 108.7004175 44.65289903 106.39661239 43.0625 104 C42.06398098 102.52071256 41.06527805 101.04154925 40.06640625 99.5625 C39.55609863 98.80195313 39.04579102 98.04140625 38.52001953 97.2578125 C36.20599274 93.82059443 33.85249421 90.41094712 31.5 87 C30.58185188 85.66418577 29.66388369 84.32824785 28.74609375 82.9921875 C26.47676926 79.69091247 24.20047789 76.39450295 21.92260742 73.09912109 C20.56436134 71.12770163 19.21540316 69.15016374 17.8671875 67.171875 C15.80701514 64.15338179 13.6981539 61.1742529 11.5703125 58.203125 C10.4422397 56.59407844 9.31462586 54.98471002 8.1875 53.375 C7.64101807 52.62879395 7.09453613 51.88258789 6.53149414 51.11376953 C2.89166274 45.84953576 2.89166274 45.84953576 3.39453125 41.90625 C5.26608735 38.51832363 7.28524427 35.29445031 9.5 32.125 C10.39530296 30.81521722 11.28845819 29.5039643 12.1796875 28.19140625 C12.64084961 27.51223145 13.10201172 26.83305664 13.57714844 26.13330078 C17.54067717 20.19072801 21.23912947 14.07111957 25 8 C14.11 7.505 14.11 7.505 3 7 C2.34 8.65 1.68 10.3 1 12 C0.34485405 13.21517723 -0.34037243 14.41475464 -1.05859375 15.59375 C-1.44466797 16.23183594 -1.83074219 16.86992188 -2.22851562 17.52734375 C-2.62748047 18.17832031 -3.02644531 18.82929687 -3.4375 19.5 C-3.83259766 20.15097656 -4.22769531 20.80195312 -4.63476562 21.47265625 C-5.40274426 22.73771256 -6.17394228 24.00082148 -6.94873047 25.26171875 C-7.88576665 26.81111439 -8.77638817 28.38836472 -9.66015625 29.96875 C-10.10230469 30.6390625 -10.54445313 31.309375 -11 32 C-11.66 32 -12.32 32 -13 32 C-14.9990225 28.19411028 -16.99270521 24.38548744 -18.98144531 20.57421875 C-19.65901244 19.27755146 -20.33804339 17.98164801 -21.01855469 16.68652344 C-21.995381 14.82685118 -22.96694285 12.9645126 -23.9375 11.1015625 C-24.52402344 9.98088379 -25.11054687 8.86020508 -25.71484375 7.70556641 C-27 5 -27 5 -27 3 C-26.34 3 -25.68 3 -25 3 C-23.703125 4.63647461 -23.703125 4.63647461 -22.25 6.90234375 C-21.7240625 7.70994141 -21.198125 8.51753906 -20.65625 9.34960938 C-20.1096875 10.20361328 -19.563125 11.05761719 -19 11.9375 C-17.92087645 13.61599524 -16.8377358 15.29191675 -15.75 16.96484375 C-15.27046875 17.7137085 -14.7909375 18.46257324 -14.296875 19.23413086 C-13.10600589 21.1370725 -13.10600589 21.1370725 -11 22 C-10.76539062 21.18273437 -10.53078125 20.36546875 -10.2890625 19.5234375 C-8.73266343 15.26928005 -6.63830042 11.53626604 -4.375 7.625 C-3.95476562 6.88894531 -3.53453125 6.15289062 -3.1015625 5.39453125 C-2.07247236 3.5936235 -1.03689244 1.79642682 0 0 Z " fill="#FBFBFB" transform="translate(109,56)"/>
<path d="M0 0 C3.74553465 1.24851155 4.10936511 2.32471255 6.1875 5.625 C10.22420187 11.86556301 14.42884488 17.97130524 18.6875 24.0625 C24.39205928 32.23761626 30.07152096 40.42834088 35.66723633 48.6784668 C37.85726211 51.90225455 40.05090067 55.10813398 42.39453125 58.22265625 C43.04808594 59.09792969 43.70164063 59.97320312 44.375 60.875 C44.91898438 61.57367188 45.46296875 62.27234375 46.0234375 62.9921875 C47.35392574 65.72767131 46.78422674 67.09642338 46 70 C44.92773438 72.08959961 44.92773438 72.08959961 43.59375 74.15234375 C43.10100586 74.92280029 42.60826172 75.69325684 42.10058594 76.48706055 C41.57239258 77.29570557 41.04419922 78.10435059 40.5 78.9375 C39.96407227 79.77128174 39.42814453 80.60506348 38.87597656 81.46411133 C37.78328171 83.16246855 36.68725923 84.85868952 35.58789062 86.55273438 C33.72605107 89.42221158 31.88013218 92.3016575 30.03613281 95.18261719 C28.36244404 97.79164001 26.68043889 100.39531972 25 103 C35.89 103.495 35.89 103.495 47 104 C47.66 102.35 48.32 100.7 49 99 C50.87834103 95.67471404 52.95139669 92.47268492 55 89.25 C55.81984375 87.93708984 55.81984375 87.93708984 56.65625 86.59765625 C57.1821875 85.76621094 57.708125 84.93476562 58.25 84.078125 C58.72953125 83.31918945 59.2090625 82.56025391 59.703125 81.77832031 C61 80 61 80 63 79 C65.02232435 82.80329043 67.03417331 86.61187584 69.03637695 90.42578125 C69.71937319 91.72319785 70.40523983 93.01910752 71.09399414 94.31347656 C72.08192296 96.17126639 73.05949639 98.03418165 74.03515625 99.8984375 C74.6269165 101.01911621 75.21867676 102.13979492 75.82836914 103.29443359 C76.21500732 104.18727051 76.60164551 105.08010742 77 106 C76.67 106.66 76.34 107.32 76 108 C71.22213069 102.21439151 66.82738751 96.45871642 63 90 C60.67638676 92.1368571 59.21456585 94.17476825 57.7734375 96.9765625 C57.3815625 97.729375 56.9896875 98.4821875 56.5859375 99.2578125 C56.18632813 100.03898437 55.78671875 100.82015625 55.375 101.625 C54.57184405 103.18047925 53.76723297 104.73520832 52.9609375 106.2890625 C52.43185791 107.32087646 52.43185791 107.32087646 51.89208984 108.37353516 C51 110 51 110 50 111 C47.25905792 111.01696765 44.54652568 110.97095184 41.80859375 110.87890625 C40.98875504 110.85529526 40.16891632 110.83168427 39.32423401 110.80735779 C36.69515461 110.73053389 34.06635605 110.64659081 31.4375 110.5625 C29.65951914 110.50929803 27.8815244 110.45655752 26.10351562 110.40429688 C21.73549787 110.27489358 17.36771918 110.13910335 13 110 C17.23494555 102.50615982 17.23494555 102.50615982 19.33984375 99.484375 C19.7572583 98.88214111 20.17467285 98.27990723 20.60473633 97.65942383 C21.26445435 96.71425903 21.26445435 96.71425903 21.9375 95.75 C22.40115967 95.07541748 22.86481934 94.40083496 23.3425293 93.70581055 C26.07350841 89.73770195 28.85353099 85.81107954 31.6796875 81.91015625 C32.28433838 81.06163086 32.88898926 80.21310547 33.51196289 79.33886719 C34.69676448 77.67644999 35.89617714 76.02433383 37.11108398 74.38378906 C40.22112325 70.30982183 40.22112325 70.30982183 40.68359375 65.4765625 C40.12800781 64.65929687 39.57242188 63.84203125 39 63 C38.22334901 61.71000207 37.44738395 60.41959106 36.671875 59.12890625 C35.70210933 57.60409622 34.72785199 56.08213698 33.75 54.5625 C33.22204834 53.73411621 32.69409668 52.90573242 32.15014648 52.05224609 C30.4372018 49.36573568 28.71873984 46.68280579 27 44 C19.82094058 32.76276935 12.66115861 21.5149475 5.625 10.1875 C5.05918213 9.2795166 4.49336426 8.3715332 3.91040039 7.43603516 C3.13877563 6.18959229 3.13877563 6.18959229 2.3515625 4.91796875 C1.89604004 4.18344482 1.44051758 3.4489209 0.97119141 2.69213867 C0 1 0 1 0 0 Z " fill="#FAFAFA" transform="translate(35,33)"/>
<path d="M0 0 C0.99 0 1.98 0 3 0 C4.53393555 1.80419922 4.53393555 1.80419922 6.13671875 4.3046875 C7.00200195 5.64466797 7.00200195 5.64466797 7.88476562 7.01171875 C8.47966797 7.95660156 9.07457031 8.90148437 9.6875 9.875 C10.29400391 10.81214844 10.90050781 11.74929687 11.52539062 12.71484375 C16 19.71113962 16 19.71113962 16 22 C15.34 22 14.68 22 14 22 C12.81079102 20.59472656 12.81079102 20.59472656 11.50390625 18.640625 C11.02759766 17.93679687 10.55128906 17.23296875 10.06054688 16.5078125 C9.56619141 15.76273438 9.07183594 15.01765625 8.5625 14.25 C7.58531345 12.79641896 6.60746792 11.34328066 5.62890625 9.890625 C4.94465576 8.86678711 4.94465576 8.86678711 4.24658203 7.82226562 C3.26281662 6.38418787 2.21784129 4.98798915 1.15234375 3.609375 C0 2 0 2 0 0 Z " fill="#F2F3F3" transform="translate(143,145)"/>
</svg>
